<svg width="31" height="31" viewBox="0 0 31 31" fill="none" xmlns="http://www.w3.org/2000/svg">
<g id="Social Icons" clip-path="url(#clip0_104_135)">
<path id="Vector" d="M27.5376 24.1186C27.0854 25.1634 26.55 26.1252 25.9298 27.0094C25.0843 28.2148 24.392 29.0492 23.8585 29.5126C23.0315 30.2732 22.1455 30.6627 21.1966 30.6848C20.5154 30.6848 19.694 30.491 18.7377 30.0978C17.7784 29.7064 16.8967 29.5126 16.0906 29.5126C15.2451 29.5126 14.3383 29.7064 13.3684 30.0978C12.3971 30.491 11.6145 30.6959 11.0163 30.7162C10.1064 30.755 9.19942 30.3544 8.29413 29.5126C7.71633 29.0086 6.99362 28.1447 6.12785 26.9208C5.19894 25.6138 4.43524 24.0982 3.83695 22.3704C3.1962 20.5041 2.875 18.6968 2.875 16.9472C2.875 14.943 3.30807 13.2144 4.17551 11.7658C4.85724 10.6023 5.76418 9.68442 6.89929 9.01063C8.0344 8.33684 9.26089 7.99348 10.5817 7.97151C11.3044 7.97151 12.2522 8.19506 13.4299 8.63441C14.6043 9.07524 15.3584 9.29879 15.689 9.29879C15.9362 9.29879 16.7739 9.0374 18.1941 8.51627C19.537 8.03298 20.6705 7.83288 21.599 7.9117C24.1151 8.11476 26.0055 9.10662 27.2626 10.8936C25.0123 12.257 23.8992 14.1667 23.9213 16.6166C23.9416 18.5248 24.6339 20.1127 25.9944 21.3735C26.6109 21.9587 27.2995 22.411 28.0656 22.7322C27.8995 23.214 27.7241 23.6755 27.5376 24.1186V24.1186ZM21.767 1.4108C21.767 2.90645 21.2206 4.30294 20.1315 5.59551C18.8171 7.13213 17.2273 8.02006 15.5033 7.87995C15.4814 7.70052 15.4686 7.51167 15.4686 7.31323C15.4686 5.8774 16.0937 4.34078 17.2037 3.08439C17.7579 2.44825 18.4627 1.91932 19.3174 1.49737C20.1702 1.08172 20.9769 0.851863 21.7356 0.8125C21.7578 1.01245 21.767 1.2124 21.767 1.41078V1.4108Z" fill="black"/>
</g>
<defs>
<clipPath id="clip0_104_135">
<rect width="29.9062" height="29.9062" fill="white" transform="translate(0.382812 0.8125)"/>
</clipPath>
</defs>
</svg>
