<svg width="31" height="31" viewBox="0 0 31 31" fill="none" xmlns="http://www.w3.org/2000/svg">
<g id="Social Icons" clip-path="url(#clip0_104_542)">
<path id="c" d="M30.2891 15.5313C30.2891 7.27294 23.5943 0.578125 15.3359 0.578125C7.07763 0.578125 0.382812 7.27294 0.382812 15.5313C0.382812 22.5437 5.21088 28.428 11.7239 30.0442V20.1009H8.64053V15.5313H11.7239V13.5622C11.7239 8.47278 14.0272 6.11377 19.024 6.11377C19.9714 6.11377 21.6061 6.29979 22.2748 6.48521V10.6272C21.9219 10.5901 21.3088 10.5716 20.5474 10.5716C18.0957 10.5716 17.1483 11.5005 17.1483 13.9151V15.5313H22.0325L21.1934 20.1009H17.1483V30.3749C24.5524 29.4807 30.2897 23.1765 30.2897 15.5313H30.2891Z" fill="#0866FF"/>
<path id="d" d="M21.1927 20.1004L22.0319 15.5308H17.1476V13.9146C17.1476 11.5 18.0951 10.5711 20.5468 10.5711C21.3082 10.5711 21.9213 10.5896 22.2742 10.6267V6.48472C21.6054 6.2987 19.9708 6.11328 19.0233 6.11328C14.0266 6.11328 11.7232 8.47229 11.7232 13.5617V15.5308H8.63989V20.1004H11.7232V30.0437C12.88 30.3308 14.09 30.4839 15.3353 30.4839C15.9484 30.4839 16.5531 30.4462 17.147 30.3744V20.1004H21.1921H21.1927Z" fill="white"/>
</g>
<defs>
<clipPath id="clip0_104_542">
<rect width="29.9062" height="29.9062" fill="white" transform="translate(0.382812 0.578125)"/>
</clipPath>
</defs>
</svg>
