<svg width="30" height="30" viewBox="0 0 30 30" fill="none" xmlns="http://www.w3.org/2000/svg">
<g id="Vector">
<path id="Vector_2" d="M15.3357 12.2812V18.0722H23.3832C23.0298 19.9345 21.9693 21.5115 20.3789 22.5718L25.2319 26.3373C28.0594 23.7274 29.6906 19.8939 29.6906 15.34C29.6906 14.2797 29.5955 13.2601 29.4187 12.2814L15.3357 12.2812Z" fill="#4285F4"/>
<path id="Vector_3" d="M6.9555 17.8467L5.86098 18.6845L1.98669 21.7023C4.44716 26.5824 9.49006 29.9537 15.3353 29.9537C19.3726 29.9537 22.7574 28.6215 25.2315 26.3378L20.3785 22.5723C19.0464 23.4695 17.3471 24.0133 15.3353 24.0133C11.4475 24.0133 8.14436 21.3897 6.96161 17.8553L6.9555 17.8467Z" fill="#34A853"/>
<path id="Vector_4" d="M1.98676 8.29883C0.967283 10.3106 0.382812 12.5808 0.382812 15.0005C0.382812 17.4201 0.967283 19.6903 1.98676 21.7021C1.98676 21.7156 6.96216 17.8415 6.96216 17.8415C6.6631 16.9443 6.48633 15.9928 6.48633 15.0003C6.48633 14.0078 6.6631 13.0563 6.96216 12.1591L1.98676 8.29883Z" fill="#FBBC05"/>
<path id="Vector_5" d="M15.3356 6.00093C17.5379 6.00093 19.4953 6.76216 21.0586 8.23031L25.3406 3.94833C22.7442 1.52869 19.373 0.046875 15.3356 0.046875C9.49037 0.046875 4.44716 3.40453 1.98669 8.29829L6.96194 12.1589C8.14452 8.62451 11.4478 6.00093 15.3356 6.00093Z" fill="#EA4335"/>
</g>
</svg>
