<svg width="28" height="28" viewBox="0 0 28 28" fill="none" xmlns="http://www.w3.org/2000/svg">
<path fill-rule="evenodd" clip-rule="evenodd" d="M5.07776 5.55305C5.88276 4.36889 7.56626 4.41322 8.41676 5.43639C9.56242 6.81422 11.1771 8.16639 13.7321 8.16639C16.3314 8.16639 17.9216 7.08139 19.0043 5.72105C19.8454 4.66289 21.6398 4.49255 22.5218 5.74789C23.2428 6.77455 24.0314 7.59122 25.5878 7.93772C25.8088 7.9931 25.9995 8.13253 26.1193 8.32634C26.2392 8.52016 26.2787 8.75307 26.2294 8.97555C26.1802 9.19804 26.0461 9.39253 25.8557 9.51769C25.6653 9.64284 25.4335 9.68877 25.2098 9.64572C23.0619 9.16972 21.9443 7.97039 21.0891 6.75355C21.0331 6.67305 20.9316 6.61355 20.7788 6.61705C20.7014 6.61806 20.6252 6.63578 20.5553 6.66901C20.4854 6.70224 20.4235 6.75018 20.3739 6.80955C19.0019 8.53389 16.9288 9.91639 13.7321 9.91639C10.4386 9.91639 8.37709 8.12905 7.07042 6.55405C7.03327 6.5097 6.98661 6.47429 6.93389 6.45046C6.88117 6.42663 6.82376 6.41498 6.76592 6.41639C6.7187 6.41459 6.67179 6.42477 6.62957 6.44599C6.58734 6.4672 6.55117 6.49876 6.52442 6.53772C5.65409 7.81755 4.53759 9.13939 2.25442 9.64572C2.14098 9.67414 2.023 9.67954 1.90743 9.66159C1.79187 9.64364 1.68108 9.6027 1.58161 9.5412C1.48214 9.4797 1.39601 9.39889 1.3283 9.30353C1.26059 9.20818 1.21269 9.10022 1.18742 8.98603C1.16215 8.87185 1.16003 8.75376 1.18117 8.63874C1.20232 8.52372 1.24631 8.4141 1.31054 8.31637C1.37477 8.21865 1.45795 8.13478 1.55514 8.06975C1.65234 8.00471 1.76158 7.95982 1.87642 7.93772C3.52376 7.57139 4.31242 6.67772 5.07776 5.55305ZM5.07776 11.3864C5.88276 10.2022 7.56626 10.2466 8.41676 11.2697C9.56242 12.6476 11.1771 13.9997 13.7321 13.9997C16.3314 13.9997 17.9216 12.9147 19.0043 11.5544C19.8454 10.4962 21.6398 10.3259 22.5218 11.5812C23.2428 12.6079 24.0314 13.4246 25.5878 13.7711C25.8088 13.8264 25.9995 13.9659 26.1193 14.1597C26.2392 14.3535 26.2787 14.5864 26.2294 14.8089C26.1802 15.0314 26.0461 15.2259 25.8557 15.351C25.6653 15.4762 25.4335 15.5221 25.2098 15.4791C23.0619 15.0031 21.9443 13.8037 21.0891 12.5869C21.0331 12.5064 20.9316 12.4469 20.7788 12.4504C20.7014 12.4514 20.6252 12.4691 20.5553 12.5023C20.4854 12.5356 20.4235 12.5835 20.3739 12.6429C19.0019 14.3684 16.9288 15.7497 13.7321 15.7497C10.4386 15.7497 8.37709 13.9612 7.07042 12.3874C7.03327 12.343 6.98661 12.3076 6.93389 12.2838C6.88117 12.26 6.82376 12.2483 6.76592 12.2497C6.7187 12.2479 6.67179 12.2581 6.62957 12.2793C6.58734 12.3005 6.55117 12.3321 6.52442 12.3711C5.65409 13.6509 4.53759 14.9727 2.25442 15.4791C2.02777 15.5292 1.7905 15.4872 1.59479 15.3624C1.39908 15.2376 1.26097 15.0401 1.21084 14.8135C1.16071 14.5868 1.20268 14.3495 1.3275 14.1538C1.45232 13.9581 1.64977 13.82 1.87642 13.7699C3.52376 13.4059 4.31242 12.5111 5.07776 11.3864ZM5.07776 17.2197C5.88276 16.0356 7.56626 16.0799 8.41676 17.1031C9.56242 18.4809 11.1771 19.8331 13.7321 19.8331C16.3314 19.8331 17.9216 18.7481 19.0043 17.3877C19.8454 16.3296 21.6398 16.1592 22.5218 17.4146C23.2428 18.4412 24.0314 19.2579 25.5878 19.6044C25.8088 19.6598 25.9995 19.7992 26.1193 19.993C26.2392 20.1868 26.2787 20.4197 26.2294 20.6422C26.1802 20.8647 26.0461 21.0592 25.8557 21.1844C25.6653 21.3095 25.4335 21.3554 25.2098 21.3124C23.0619 20.8364 21.9443 19.6371 21.0891 18.4202C21.0331 18.3397 20.9316 18.2802 20.7788 18.2837C20.7014 18.2847 20.6252 18.3025 20.5553 18.3357C20.4854 18.3689 20.4235 18.4168 20.3739 18.4762C19.0019 20.2017 16.9288 21.5831 13.7321 21.5831C10.4386 21.5831 8.37709 19.7957 7.07042 18.2207C7.03327 18.1764 6.98661 18.141 6.93389 18.1171C6.88117 18.0933 6.82376 18.0816 6.76592 18.0831C6.7187 18.0813 6.67179 18.0914 6.62957 18.1127C6.58734 18.1339 6.55117 18.1654 6.52442 18.2044C5.65409 19.4842 4.53759 20.8061 2.25442 21.3124C2.02777 21.3625 1.7905 21.3205 1.59479 21.1957C1.39908 21.0709 1.26097 20.8735 1.21084 20.6468C1.16071 20.4202 1.20268 20.1829 1.3275 19.9872C1.45232 19.7915 1.64977 19.6533 1.87642 19.6032C3.52376 19.2392 4.31242 18.3444 5.07776 17.2197Z" fill="#485935"/>
</svg>
