<svg width="28" height="28" viewBox="0 0 28 28" fill="none" xmlns="http://www.w3.org/2000/svg">
<g clip-path="url(#clip0_133_43)">
<path d="M21.6799 6.50656C20.1368 3.89212 17.9461 1.71937 15.3191 0.197807L14.8518 -0.0725098L14.3844 0.197807C11.7127 1.73966 9.49419 3.958 7.95213 6.62959C6.41008 9.30119 5.59886 12.3318 5.6001 15.4165C5.6001 15.6175 5.6036 15.8216 5.61042 16.0232C5.70329 18.7564 6.74857 21.0563 8.63326 22.6742C10.0755 23.9123 11.9255 24.6682 13.9187 24.8485V28.0724H15.7853V13.1391H13.9184V22.9699C10.7647 22.6045 7.62584 20.3766 7.47587 15.9597C7.46968 15.7792 7.46653 15.5964 7.46653 15.4165C7.47211 12.753 8.15236 10.1343 9.44379 7.80478C10.7352 5.47528 12.5958 3.51091 14.8518 2.09498C17.1077 3.51093 18.9682 5.47532 20.2596 7.80482C21.551 10.1343 22.2312 12.753 22.2368 15.4165C22.2368 15.5964 22.2336 15.7792 22.2274 15.9598C22.1075 19.4932 20.0745 21.6255 17.6515 22.5244V24.4999C18.9089 24.1435 20.0748 23.5208 21.0703 22.6741C22.955 21.0562 24.0002 18.7563 24.0931 16.0231C24.0999 15.8215 24.1034 15.6174 24.1034 15.4164C24.1051 12.2834 23.2683 9.20705 21.6799 6.50656Z" fill="#485935"/>
</g>
<defs>
<clipPath id="clip0_133_43">
<rect width="28" height="28" fill="white"/>
</clipPath>
</defs>
</svg>
