<svg width="40" height="40" viewBox="0 0 40 40" fill="none" xmlns="http://www.w3.org/2000/svg">
<path fill-rule="evenodd" clip-rule="evenodd" d="M40 20C40 31.046 31.046 40 20 40C8.954 40 0 31.046 0 20C0 8.954 8.954 0 20 0C31.046 0 40 8.954 40 20ZM12 22C12.5304 22 13.0391 21.7893 13.4142 21.4142C13.7893 21.0391 14 20.5304 14 20C14 19.4696 13.7893 18.9609 13.4142 18.5858C13.0391 18.2107 12.5304 18 12 18C11.4696 18 10.9609 18.2107 10.5858 18.5858C10.2107 18.9609 10 19.4696 10 20C10 20.5304 10.2107 21.0391 10.5858 21.4142C10.9609 21.7893 11.4696 22 12 22ZM20 22C20.5304 22 21.0391 21.7893 21.4142 21.4142C21.7893 21.0391 22 20.5304 22 20C22 19.4696 21.7893 18.9609 21.4142 18.5858C21.0391 18.2107 20.5304 18 20 18C19.4696 18 18.9609 18.2107 18.5858 18.5858C18.2107 18.9609 18 19.4696 18 20C18 20.5304 18.2107 21.0391 18.5858 21.4142C18.9609 21.7893 19.4696 22 20 22ZM28 22C28.5304 22 29.0391 21.7893 29.4142 21.4142C29.7893 21.0391 30 20.5304 30 20C30 19.4696 29.7893 18.9609 29.4142 18.5858C29.0391 18.2107 28.5304 18 28 18C27.4696 18 26.9609 18.2107 26.5858 18.5858C26.2107 18.9609 26 19.4696 26 20C26 20.5304 26.2107 21.0391 26.5858 21.4142C26.9609 21.7893 27.4696 22 28 22Z" fill="#93A267"/>
</svg>
