<svg width="25" height="25" viewBox="0 0 25 25" fill="none" xmlns="http://www.w3.org/2000/svg">
<path d="M9.473 20.491H15.489C15.6557 20.491 15.7967 20.443 15.912 20.347C16.0273 20.251 16.1107 20.1323 16.162 19.991L17.316 15.395H7.646L8.8 19.991C8.85133 20.1323 8.93467 20.251 9.05 20.347C9.16533 20.443 9.30633 20.491 9.473 20.491ZM9.473 21.491C9.08367 21.491 8.73967 21.375 8.441 21.143C8.14233 20.911 7.941 20.6083 7.837 20.235L6.616 15.395H18.346L17.125 20.235C17.021 20.595 16.8197 20.8943 16.521 21.133C16.2223 21.3716 15.878 21.491 15.488 21.491H9.473ZM6.193 14.395H18.808C19.0133 14.395 19.18 14.331 19.308 14.203C19.436 14.075 19.5 13.9143 19.5 13.721V12.009H5.5V13.721C5.5 13.913 5.56733 14.073 5.702 14.201C5.83667 14.3296 6 14.394 6.192 14.394M12.481 8.60597C12.481 7.24664 12.997 6.08931 14.029 5.13397C15.061 4.17864 16.263 3.63697 17.635 3.50897C17.4937 4.76564 16.993 5.86064 16.133 6.79397C15.273 7.72731 14.222 8.31731 12.98 8.56397V11.01H20.5V13.722C20.5 14.182 20.333 14.576 19.999 14.904C19.665 15.232 19.268 15.3953 18.808 15.394H6.192C5.732 15.394 5.335 15.2306 5.001 14.904C4.667 14.5773 4.5 14.183 4.5 13.721V11.009H11.98V8.56397C10.74 8.31731 9.68967 7.73064 8.829 6.80397C7.96833 5.87731 7.46767 4.77964 7.327 3.51097C8.68567 3.63897 9.88433 4.18397 10.923 5.14597C11.9617 6.10731 12.481 7.26131 12.481 8.60797" fill="#485935" fill-opacity="0.5"/>
</svg>
