<svg width="28" height="28" viewBox="0 0 28 28" fill="none" xmlns="http://www.w3.org/2000/svg">
<path d="M13.4163 25.6666C14.7458 25.6668 16.0425 25.2541 17.1272 24.4855C18.2119 23.7169 19.0312 22.6303 19.4717 21.376C19.9121 20.1216 19.9521 18.7614 19.5861 17.4834C19.2201 16.2053 18.4662 15.0725 17.4285 14.2414C17.2731 14.1235 17.1463 13.9721 17.0576 13.7984C16.9689 13.6246 16.9206 13.4331 16.9163 13.2381V5.83325C16.9163 4.90499 16.5476 4.01476 15.8912 3.35838C15.2348 2.702 14.3446 2.33325 13.4163 2.33325C12.4881 2.33325 11.5978 2.702 10.9415 3.35838C10.2851 4.01476 9.91633 4.90499 9.91633 5.83325V13.2393C9.91633 13.6336 9.71216 13.9953 9.40416 14.2426C8.36693 15.0737 7.61341 16.2065 7.24768 17.4843C6.88196 18.7622 6.92209 20.1221 7.36252 21.3762C7.80296 22.6302 8.62196 23.7166 9.70639 24.4851C10.7908 25.2537 12.0872 25.6665 13.4163 25.6666Z" stroke="#485935" stroke-width="1.3125"/>
<path d="M16.3331 19.2499C16.3331 20.0235 16.0258 20.7653 15.4788 21.3123C14.9318 21.8593 14.19 22.1666 13.4164 22.1666C12.6429 22.1666 11.901 21.8593 11.354 21.3123C10.807 20.7653 10.4998 20.0235 10.4998 19.2499C10.4998 18.4764 10.807 17.7345 11.354 17.1875C11.901 16.6405 12.6429 16.3333 13.4164 16.3333C14.19 16.3333 14.9318 16.6405 15.4788 17.1875C16.0258 17.7345 16.3331 18.4764 16.3331 19.2499Z" stroke="#485935" stroke-width="1.3125"/>
<path d="M13.4163 16.3333V5.83325" stroke="#485935" stroke-width="1.3125" stroke-linecap="round"/>
</svg>
