<svg width="28" height="28" viewBox="0 0 28 28" fill="none" xmlns="http://www.w3.org/2000/svg">
<path d="M22.75 17.2834C22.75 22.1161 19.7077 25.1584 14.875 25.1584C10.0423 25.1584 7 22.1161 7 17.2834C7 12.0974 12.6454 5.09629 14.3768 3.07122C14.4384 2.99927 14.5149 2.94151 14.6009 2.9019C14.687 2.8623 14.7806 2.8418 14.8753 2.8418C14.97 2.8418 15.0636 2.8623 15.1496 2.9019C15.2357 2.94151 15.3121 2.99927 15.3737 3.07122C17.1046 5.09629 22.75 12.0974 22.75 17.2834Z" stroke="#485935" stroke-width="1.75" stroke-miterlimit="10"/>
<path d="M18.8125 17.9375C18.8125 18.9818 18.3977 19.9833 17.6592 20.7217C16.9208 21.4602 15.9193 21.875 14.875 21.875" stroke="#485935" stroke-width="1.75" stroke-linecap="round" stroke-linejoin="round"/>
</svg>
